<?xml version="1.0" encoding="UTF-8" standalone="no"?>
<svg
   xmlns:dc="http://purl.org/dc/elements/1.1/"
   xmlns:cc="http://creativecommons.org/ns#"
   xmlns:rdf="http://www.w3.org/1999/02/22-rdf-syntax-ns#"
   xmlns:svg="http://www.w3.org/2000/svg"
   xmlns="http://www.w3.org/2000/svg"
   xmlns:sodipodi="http://sodipodi.sourceforge.net/DTD/sodipodi-0.dtd"
   xmlns:inkscape="http://www.inkscape.org/namespaces/inkscape"
   sodipodi:docname="solquest.svg"
   inkscape:version="1.0 (4035a4fb49, 2020-05-01)"
   id="svg8"
   version="1.1"
   viewBox="0 0 130.63388 129.35851"
   height="129.35851mm"
   width="130.63388mm">
  <defs
     id="defs2" />
  <sodipodi:namedview
     inkscape:window-maximized="1"
     inkscape:window-y="-9"
     inkscape:window-x="-9"
     inkscape:window-height="1001"
     inkscape:window-width="1920"
     inkscape:snap-nodes="false"
     inkscape:object-nodes="false"
     showgrid="false"
     inkscape:document-rotation="0"
     inkscape:current-layer="layer1"
     inkscape:document-units="mm"
     inkscape:cy="380.53656"
     inkscape:cx="189.65851"
     inkscape:zoom="0.9899495"
     inkscape:pageshadow="2"
     inkscape:pageopacity="0.0"
     borderopacity="1.0"
     bordercolor="#666666"
     pagecolor="#ffffff"
     id="base" />
  <metadata
     id="metadata5">
    <rdf:RDF>
      <cc:Work
         rdf:about="">
        <dc:format>image/svg+xml</dc:format>
        <dc:type
           rdf:resource="http://purl.org/dc/dcmitype/StillImage" />
        <dc:title />
      </cc:Work>
    </rdf:RDF>
  </metadata>
  <g
     id="layer1"
     inkscape:groupmode="layer"
     inkscape:label="Layer 1"
     transform="translate(-32.606795,-10.423653)">
    <g
       style="fill:#ff9900;fill-opacity:1"
       id="g872">
      <path
         transform="scale(0.26458333)"
         d="m 157.85938,39.396484 c -3.91738,0 -7.07227,3.152942 -7.07227,7.070313 v 13.677734 a 14.142136,14.142136 0 0 0 -13.40625,-9.636719 14.142136,14.142136 0 0 0 -14.14258,14.142579 14.142136,14.142136 0 0 0 14.14258,14.140625 14.142136,14.142136 0 0 0 13.40625,-9.640625 v 13.68164 c 0,3.917371 3.15489,7.072266 7.07227,7.072266 3.91739,0 7.07031,-3.154895 7.07031,-7.072266 V 46.466797 c 0,-3.917371 -3.15292,-7.070313 -7.07031,-7.070313 z m 424.49218,0 c -3.9174,0 -7.07031,3.152942 -7.07031,7.070313 v 36.365234 c 0,3.917371 3.15291,7.072266 7.07031,7.072266 3.91737,0 7.07227,-3.154895 7.07227,-7.072266 v -13.68164 a 14.142136,14.142136 0 0 0 13.40625,9.640625 14.142136,14.142136 0 0 0 14.14258,-14.140625 14.142136,14.142136 0 0 0 -14.14258,-14.142579 14.142136,14.142136 0 0 0 -13.40625,9.636719 V 46.466797 c 0,-3.917371 -3.1549,-7.070313 -7.07227,-7.070313 z M 167.68555,49.498047 V 79.802734 H 572.75781 V 49.498047 Z m 13.13086,34.34375 V 484.87305 H 565.68555 V 83.841797 Z m 8.08203,8.421875 H 557.60352 V 476.45312 H 188.89844 Z M 157.85938,477.80273 c -3.91738,0 -7.07227,3.15295 -7.07227,7.07032 v 13.67773 a 14.142136,14.142136 0 0 0 -13.40625,-9.63672 14.142136,14.142136 0 0 0 -14.14258,14.14258 14.142136,14.142136 0 0 0 14.14258,14.14063 14.142136,14.142136 0 0 0 13.40625,-9.64063 v 13.68164 c 0,3.91737 3.15489,7.07227 7.07227,7.07227 3.91739,0 7.07031,-3.1549 7.07031,-7.07227 v -36.36523 c 0,-3.91737 -3.15292,-7.07032 -7.07031,-7.07032 z m 424.49218,0 c -3.9174,0 -7.07031,3.15295 -7.07031,7.07032 v 36.36523 c 0,3.91737 3.15291,7.07227 7.07031,7.07227 3.91737,0 7.07227,-3.1549 7.07227,-7.07227 v -13.68164 a 14.142136,14.142136 0 0 0 13.40625,9.64063 14.142136,14.142136 0 0 0 14.14258,-14.14063 14.142136,14.142136 0 0 0 -14.14258,-14.14258 14.142136,14.142136 0 0 0 -13.40625,9.63672 v -13.67773 c 0,-3.91737 -3.1549,-7.07032 -7.07227,-7.07032 z M 167.68555,487.9043 v 30.30468 H 572.75781 V 487.9043 Z"
         style="fill:#ff9900;stroke-width:0.781349;stop-color:#000000;fill-opacity:1"
         id="rect836" />
      <text
         id="text861"
         y="89.340599"
         x="63.073841"
         style="font-style:italic;font-variant:normal;font-weight:bold;font-stretch:normal;font-size:52.1158px;line-height:1.25;font-family:'Trebuchet MS';-inkscape-font-specification:'Trebuchet MS, Bold Italic';font-variant-ligatures:normal;font-variant-caps:normal;font-variant-numeric:normal;font-variant-east-asian:normal;letter-spacing:0px;fill:#ff9900;stroke-width:1.3029;fill-opacity:1"
         xml:space="preserve"><tspan
           style="font-style:italic;font-variant:normal;font-weight:bold;font-stretch:normal;font-size:52.1158px;font-family:'Trebuchet MS';-inkscape-font-specification:'Trebuchet MS, Bold Italic';font-variant-ligatures:normal;font-variant-caps:normal;font-variant-numeric:normal;font-variant-east-asian:normal;fill:#ff9900;stroke-width:1.3029;fill-opacity:1"
           y="89.340599"
           x="63.073841"
           id="tspan859"
           sodipodi:role="line">SQ</tspan></text>
    </g>
  </g>
</svg>
