<?xml version="1.0" encoding="UTF-8" standalone="no"?>
<svg
   xmlns:dc="http://purl.org/dc/elements/1.1/"
   xmlns:cc="http://creativecommons.org/ns#"
   xmlns:rdf="http://www.w3.org/1999/02/22-rdf-syntax-ns#"
   xmlns:svg="http://www.w3.org/2000/svg"
   xmlns="http://www.w3.org/2000/svg"
   xmlns:sodipodi="http://sodipodi.sourceforge.net/DTD/sodipodi-0.dtd"
   xmlns:inkscape="http://www.inkscape.org/namespaces/inkscape"
   inkscape:version="1.0 (4035a4fb49, 2020-05-01)"
   sodipodi:docname="WF Icon Button.svg"
   id="svg10"
   version="1.1"
   fill="none"
   viewBox="0 0 44 44"
   height="44"
   width="44">
  <metadata
     id="metadata16">
    <rdf:RDF>
      <cc:Work
         rdf:about="">
        <dc:format>image/svg+xml</dc:format>
        <dc:type
           rdf:resource="http://purl.org/dc/dcmitype/StillImage" />
      </cc:Work>
    </rdf:RDF>
  </metadata>
  <defs
     id="defs14">
    <inkscape:perspective
       id="perspective841"
       inkscape:persp3d-origin="22 : 14.666667 : 1"
       inkscape:vp_z="44 : 22 : 1"
       inkscape:vp_y="0 : 1000 : 0"
       inkscape:vp_x="0 : 22 : 1"
       sodipodi:type="inkscape:persp3d" />
  </defs>
  <sodipodi:namedview
     inkscape:current-layer="svg10"
     inkscape:window-maximized="1"
     inkscape:window-y="-9"
     inkscape:window-x="-9"
     inkscape:cy="25.771617"
     inkscape:cx="14.486319"
     inkscape:zoom="11.811897"
     showgrid="false"
     id="namedview12"
     inkscape:window-height="1001"
     inkscape:window-width="1920"
     inkscape:pageshadow="2"
     inkscape:pageopacity="0"
     guidetolerance="10"
     gridtolerance="10"
     objecttolerance="10"
     borderopacity="1"
     bordercolor="#666666"
     pagecolor="#ffffff" />
  <rect
     style="fill:none;stroke-width:2;stroke-miterlimit:4;stroke-dasharray:none;stroke:#ffffff;stroke-opacity:1"
     id="rect2"
     stroke-width="2"
     stroke="#2d3648"
     rx="5"
     height="42"
     width="42"
     y="1"
     x="1" />
  <path
     style="fill:#ffffff"
     id="path4"
     fill="#2D3648"
     d="M13.6665 16.9998C13.6665 16.5396 14.0396 16.1665 14.4998 16.1665H29.4998C29.9601 16.1665 30.3332 16.5396 30.3332 16.9998C30.3332 17.4601 29.9601 17.8332 29.4998 17.8332H14.4998C14.0396 17.8332 13.6665 17.4601 13.6665 16.9998Z" />
  <path
     style="fill:#ffffff"
     id="path6"
     fill="#2D3648"
     d="M13.6665 21.9998C13.6665 21.5396 14.0396 21.1665 14.4998 21.1665H29.4998C29.9601 21.1665 30.3332 21.5396 30.3332 21.9998C30.3332 22.4601 29.9601 22.8332 29.4998 22.8332H14.4998C14.0396 22.8332 13.6665 22.4601 13.6665 21.9998Z" />
  <path
     style="fill:#ffffff"
     id="path8"
     fill="#2D3648"
     d="M14.4998 26.1665C14.0396 26.1665 13.6665 26.5396 13.6665 26.9998C13.6665 27.4601 14.0396 27.8332 14.4998 27.8332H29.4998C29.9601 27.8332 30.3332 27.4601 30.3332 26.9998C30.3332 26.5396 29.9601 26.1665 29.4998 26.1665H14.4998Z" />
</svg>
