<?xml version="1.0" encoding="iso-8859-1"?>
<!-- Generator: Adobe Illustrator 19.0.0, SVG Export Plug-In . SVG Version: 6.00 Build 0)  -->
<svg xmlns="http://www.w3.org/2000/svg" xmlns:xlink="http://www.w3.org/1999/xlink" version="1.1" id="Layer_1" x="0px" y="0px" viewBox="0 0 512 512" style="enable-background:new 0 0 512 512;" xml:space="preserve">
<path style="fill:#FF8A00;" d="M51.2,331.992c-12.185,0-22.097-9.912-22.097-22.097s9.912-22.097,22.097-22.097  s22.097,9.912,22.097,22.097S63.384,331.992,51.2,331.992z"/>
<path style="fill:#FFD94C;" d="M460.8,331.992c-12.185,0-22.097-9.912-22.097-22.097s9.912-22.097,22.097-22.097  s22.097,9.912,22.097,22.097S472.984,331.992,460.8,331.992z"/>
<path style="fill:#679436;" d="M309.894,62.518c-12.184,0-22.097-9.912-22.097-22.097s9.912-22.097,22.097-22.097  c12.185,0,22.097,9.912,22.097,22.097S322.079,62.518,309.894,62.518z"/>
<path style="fill:#427AA1;" d="M256,299.655c-24.072,0-43.655-19.583-43.655-43.655s19.583-43.655,43.655-43.655  s43.655,19.583,43.655,43.655S280.071,299.655,256,299.655z"/>
<path d="M256,204.8c-28.231,0-51.2,22.969-51.2,51.2s22.969,51.2,51.2,51.2s51.2-22.969,51.2-51.2S284.231,204.8,256,204.8z   M256,291.032c-19.317,0-35.032-15.715-35.032-35.032s15.715-35.032,35.032-35.032s35.032,15.715,35.032,35.032  S275.317,291.032,256,291.032z"/>
<path d="M465.384,280.602c-4.644-0.707-9.122-0.315-13.227,0.94c-5.717-8.539-12.154-17.092-19.25-25.605  c6.846-8.196,13.096-16.434,18.683-24.655c6.692-9.848,12.272-19.443,16.729-28.712c2.594-5.396-1.3-11.651-7.288-11.651l0,0  c-3.137,0-5.97,1.817-7.324,4.646c-4.094,8.552-9.265,17.467-15.492,26.63c-4.844,7.129-10.227,14.276-16.081,21.401  c-15.498-16.984-33.531-33.687-53.603-49.651c-3.384-30.855-9.28-59.827-17.409-85.605c4.578-0.943,9.1-1.765,13.553-2.454  c46.397-7.191,80.672,0.813,94.036,21.947c5.308,8.395,7.322,18.883,6.174,30.908c-0.458,4.796,3.235,8.969,8.052,8.969h0.06  c4.196,0,7.674-3.209,8.076-7.386c1.503-15.619-1.355-29.521-8.696-41.131C455.164,91.965,416.035,81.564,362.2,89.906  c-5.364,0.831-10.82,1.848-16.348,3.026c-4.289-11.595-9.065-22.409-14.303-32.298c4.957-5.308,7.997-12.427,7.988-20.247  c-0.018-15.812-12.812-29.048-28.614-29.588c-5.663-0.194-10.986,1.219-15.563,3.806C282.859,4.916,269.634,0,256,0  c-32.21,0-61.911,27.513-83.633,77.474c-2.168,4.986-4.227,10.151-6.19,15.462c-5.538-1.18-11.004-2.199-16.378-3.031  c-53.837-8.343-92.964,2.06-110.177,29.285c-17.214,27.224-9.83,67.032,20.787,112.09c5.578,8.209,11.818,16.433,18.652,24.618  c-7.104,8.53-13.539,17.096-19.234,25.639c-4.107-1.251-8.587-1.644-13.232-0.932c-12.977,1.988-23.233,12.571-24.814,25.604  c-1.399,11.532,3.878,21.971,12.47,27.982c-6.286,22.864-4.46,43.068,5.371,58.617c13.338,21.097,39.836,32.09,76.139,32.09  c10.546,0,21.919-0.927,34.038-2.806c5.372-0.832,10.839-1.851,16.378-3.031c1.963,5.312,4.023,10.476,6.19,15.462  C194.089,484.487,223.79,512,256,512s61.911-27.513,83.633-77.474c2.168-4.986,4.228-10.151,6.19-15.462  c5.538,1.18,11.004,2.199,16.378,3.031c12.122,1.878,23.489,2.806,34.038,2.806c36.299-0.002,62.802-10.996,76.139-32.09  c9.834-15.553,11.663-35.752,5.375-58.621c8.595-6.016,13.872-16.463,12.464-28.002  C488.624,293.157,478.362,282.579,465.384,280.602z M411.511,255.918c-12.114,13.419-25.867,26.676-40.974,39.504  c0.881-12.928,1.337-26.097,1.337-39.422c0-13.379-0.461-26.58-1.344-39.526C385.69,229.311,399.438,242.541,411.511,255.918z   M353.166,202.428c1.669,17.342,2.538,35.277,2.538,53.572c0,18.239-0.861,36.162-2.538,53.524  c-13.778,10.695-28.466,21.002-43.883,30.749c-17.625,11.143-35.503,21.109-53.285,29.769c-17.782-8.66-35.659-18.626-53.285-29.769  c-15.416-9.747-30.105-20.054-43.883-30.749c-1.675-17.362-2.536-35.285-2.536-53.524c0-18.265,0.863-36.213,2.545-53.597  c13.726-10.612,28.398-20.891,43.877-30.677c17.625-11.143,35.503-21.109,53.285-29.769c17.782,8.66,35.659,18.626,53.285,29.769  C324.756,181.509,339.431,191.796,353.166,202.428z M335.364,112.015c6.628,20.727,11.747,43.72,15.192,68.222  c-10.438-7.623-21.335-15.033-32.631-22.176c-14.268-9.021-28.714-17.301-43.163-24.772  C295.446,124.255,315.833,117.088,335.364,112.015z M309.894,26.947c7.43,0,13.474,6.044,13.474,13.474s-6.044,13.474-13.474,13.474  s-13.474-6.044-13.474-13.474S302.464,26.947,309.894,26.947z M187.194,83.919C205.915,40.863,230.994,16.168,256,16.168  c9.413,0,18.777,3.373,27.895,10.033c-2.32,4.224-3.642,9.069-3.642,14.22c0,16.344,13.298,29.642,29.642,29.642  c2.698,0,5.31-0.369,7.795-1.048c4.478,8.535,8.605,17.791,12.348,27.692c-23.845,6.295-48.831,15.534-74.038,27.344  c-25.189-11.802-50.158-21.035-73.987-27.33C183.666,92.337,185.393,88.064,187.194,83.919z M176.695,112.031  c19.513,5.074,39.879,12.234,60.544,21.258c-14.449,7.471-28.895,15.751-43.163,24.772c-11.289,7.138-22.174,14.536-32.599,22.142  C164.921,155.82,170.039,132.847,176.695,112.031z M73.784,222.194c-26.388-38.833-33.859-73.228-20.496-94.363  c13.364-21.134,47.633-29.137,94.036-21.947c4.466,0.692,8.999,1.517,13.589,2.462c-8.165,25.887-14.061,54.843-17.441,85.573  c-20.115,15.98-38.163,32.68-53.638,49.636C83.991,236.443,78.619,229.309,73.784,222.194z M141.464,295.422  c-15.12-12.84-28.883-26.109-41.005-39.538c12.058-13.362,25.818-26.594,41.015-39.447c-0.887,12.974-1.347,26.19-1.347,39.563  C140.126,269.325,140.582,282.494,141.464,295.422z M37.726,309.895c0-7.43,6.044-13.474,13.474-13.474s13.474,6.044,13.474,13.474  S58.63,323.368,51.2,323.368S37.726,317.325,37.726,309.895z M147.324,406.117c-46.398,7.191-80.672-0.813-94.036-21.947  c-7.304-11.553-8.544-26.571-3.727-44.68c0.543,0.029,1.089,0.047,1.638,0.047c16.344,0,29.642-13.298,29.642-29.642  c0-7.505-2.809-14.363-7.425-19.591c4.906-7.347,10.397-14.72,16.421-22.075c15.565,17.056,33.623,33.814,53.624,49.763  c3.378,30.763,9.279,59.751,17.452,85.664C156.322,404.601,151.789,405.425,147.324,406.117z M161.469,331.741  c10.457,7.654,21.343,15.077,32.606,22.198c14.268,9.021,28.714,17.301,43.163,24.772c-20.665,9.024-41.03,16.185-60.544,21.258  C170.033,379.137,164.913,356.144,161.469,331.741z M324.805,428.08c-18.721,43.057-43.799,67.751-68.805,67.751  s-50.084-24.695-68.805-67.751c-1.801-4.143-3.528-8.416-5.181-12.802c23.829-6.295,48.797-15.528,73.987-27.33  c25.189,11.802,50.158,21.035,73.987,27.33C328.332,419.663,326.606,423.936,324.805,428.08z M335.305,399.969  c-19.513-5.074-39.879-12.234-60.544-21.258c14.449-7.471,28.895-15.751,43.163-24.772c11.263-7.121,22.15-14.544,32.606-22.198  C347.086,356.144,341.966,379.137,335.305,399.969z M458.712,384.169c-13.364,21.134-47.633,29.132-94.036,21.947  c-4.466-0.692-8.999-1.517-13.589-2.462c8.174-25.913,14.073-54.9,17.452-85.664c19.99-15.941,38.037-32.688,53.596-49.733  c6.02,7.344,11.512,14.709,16.44,22.055c-4.61,5.227-7.416,12.081-7.416,19.581c0,16.344,13.298,29.642,29.642,29.642  c0.55,0,1.094-0.018,1.636-0.047C467.254,357.597,466.016,372.615,458.712,384.169z M460.8,323.368  c-7.43,0-13.474-6.044-13.474-13.474s6.044-13.474,13.474-13.474s13.474,6.044,13.474,13.474S468.23,323.368,460.8,323.368z"/>
<g>
</g>
<g>
</g>
<g>
</g>
<g>
</g>
<g>
</g>
<g>
</g>
<g>
</g>
<g>
</g>
<g>
</g>
<g>
</g>
<g>
</g>
<g>
</g>
<g>
</g>
<g>
</g>
<g>
</g>
</svg>
