<?xml version="1.0" standalone="no"?>
<!DOCTYPE svg PUBLIC "-//W3C//DTD SVG 20010904//EN"
 "http://www.w3.org/TR/2001/REC-SVG-20010904/DTD/svg10.dtd">
<svg version="1.0" xmlns="http://www.w3.org/2000/svg"
 width="629.000000pt" height="629.000000pt" viewBox="0 0 629.000000 629.000000"
 preserveAspectRatio="xMidYMid meet">

<g transform="translate(0.000000,629.000000) scale(0.100000,-0.100000)"
fill="#000000" stroke="none">
<path d="M2930 6284 c-245 -22 -460 -60 -645 -114 -515 -150 -944 -398 -1323
-765 -525 -508 -841 -1138 -939 -1875 -24 -176 -23 -596 0 -775 93 -693 384
-1299 862 -1793 508 -526 1137 -840 1875 -939 176 -24 596 -23 775 0 693 93
1299 384 1793 862 533 516 853 1163 944 1910 19 160 16 576 -6 740 -91 692
-383 1299 -861 1793 -507 524 -1146 844 -1869 938 -115 15 -511 26 -606 18z
m-961 -1782 c25 -9 232 -12 755 -12 775 0 927 -6 1124 -45 153 -30 161 -33
143 -45 -8 -4 -14 -22 -13 -39 0 -19 -6 -35 -16 -41 -13 -7 -14 -12 -5 -18 13
-8 2 -34 -13 -33 -5 1 -9 -7 -9 -16 0 -10 -6 -23 -14 -29 -7 -6 -12 -17 -9
-25 3 -8 -2 -19 -11 -26 -11 -9 -12 -12 -3 -13 10 0 10 -3 0 -14 -10 -10 -15
-11 -21 -2 -6 7 -7 4 -3 -7 3 -9 -3 -33 -14 -52 -11 -19 -20 -37 -20 -40 0 -3
0 -10 0 -16 0 -5 -4 -7 -10 -4 -5 3 -10 -1 -10 -10 0 -9 4 -13 10 -10 5 3 7 0
4 -9 -3 -8 -12 -17 -20 -20 -9 -3 -13 -10 -10 -15 3 -5 0 -11 -8 -14 -8 -3
-12 -14 -9 -25 2 -10 -3 -27 -12 -36 -22 -21 -65 -103 -65 -122 0 -19 -27 -29
-43 -16 -27 22 -141 63 -215 77 -42 9 -180 20 -307 25 -243 10 -296 18 -357
52 -34 20 -40 20 -53 7 -14 -14 -13 -22 12 -75 l28 -59 3 -582 3 -583 177 -2
c204 -3 235 -3 356 2 l89 3 178 -314 178 -314 -32 -8 c-18 -4 -196 -10 -397
-14 -266 -4 -374 -9 -397 -18 -21 -9 -40 -28 -54 -57 -26 -50 -30 -135 -15
-332 8 -107 7 -120 -8 -131 -9 -7 -26 -10 -37 -8 -38 10 -41 45 -18 207 17
121 19 160 10 192 -38 141 -198 215 -471 218 -116 1 -127 -1 -157 -22 -69 -49
-78 -174 -33 -488 23 -164 35 -331 26 -367 -9 -38 -33 -57 -70 -57 -60 0 -71
25 -69 159 1 64 11 213 22 331 12 118 21 246 20 285 -1 126 -33 196 -76 169
-29 -18 -32 -78 -12 -228 32 -244 24 -296 -45 -296 -71 0 -80 44 -55 268 18
168 19 247 17 1408 -3 1142 -4 1231 -20 1264 -10 19 -23 42 -30 52 -9 13 -9
20 1 32 12 15 17 14 45 -7 17 -13 46 -29 65 -35z m2043 -124 c-6 -6 -15 -8
-19 -4 -4 4 -1 11 7 16 19 12 27 3 12 -12z m-1136 -3443 c23 -146 9 -205 -50
-205 -33 0 -46 29 -46 106 0 63 26 219 47 289 8 25 26 -46 49 -190z"/>
<path d="M3765 3910 c-3 -5 -1 -10 4 -10 6 0 11 5 11 10 0 6 -2 10 -4 10 -3 0
-8 -4 -11 -10z"/>
</g>
</svg>
