<svg width="372" height="372" viewBox="0 0 372 372" fill="none" xmlns="http://www.w3.org/2000/svg">
<path d="M0 186C0 83.275 83.275 0 186 0C288.725 0 372 83.275 372 186C372 288.725 288.725 372 186 372C83.275 372 0 288.725 0 186Z" fill="black"/>
<path d="M164.464 284.027L166.567 268.062C166.567 257.044 156.088 251.534 135.13 251.534C131.526 251.534 129.023 252.471 127.622 254.345C126.22 256.219 125.519 259.405 125.519 263.902C125.519 268.399 126.12 274.62 127.321 282.566C128.523 290.586 129.123 296.695 129.123 300.892C129.123 305.164 127.622 307.301 124.618 307.301C121.615 307.301 120.113 305.052 120.113 300.555C120.113 296.132 120.58 289.424 121.514 280.429C122.449 271.435 122.916 265.326 122.916 262.103C122.916 254.458 121.681 250.635 119.212 250.635C117.61 250.635 116.809 252.771 116.809 257.044L119.212 275.707C119.212 280.13 117.777 282.341 114.907 282.341C112.104 282.341 110.702 280.092 110.702 275.595L113.005 254.907L112.905 236.244V115.604C112.905 110.957 111.603 107.209 109 104.361L111.002 102C113.739 104.998 117.076 106.497 121.014 106.497H203.709C243.622 106.497 268.384 121.076 277.995 150.233C280.665 158.478 282 167.285 282 176.655C282 185.949 281.466 193.969 280.398 200.715C279.397 207.386 278.095 213.27 276.494 218.367C274.892 223.389 272.622 227.849 269.686 231.746C266.816 235.644 263.912 238.942 260.976 241.64C258.106 244.264 254.435 246.512 249.963 248.386C245.491 250.26 241.353 251.722 237.549 252.771C233.744 253.746 228.972 254.495 223.232 255.02C214.222 255.844 203.643 256.257 191.495 256.257H176.979C171.372 256.257 168.569 260.754 168.569 269.748L170.171 284.14C170.171 286.988 169.303 288.412 167.568 288.412C165.499 288.412 164.464 286.95 164.464 284.027ZM221.83 206.674C223.899 203.676 225.501 199.816 226.636 195.094C227.771 190.297 228.338 184.562 228.338 177.892C228.338 171.146 227.337 165.524 225.334 161.027C223.332 156.529 220.662 153.231 217.325 151.133C213.988 149.034 210.284 147.497 206.212 146.523C202.141 145.474 197.869 144.912 193.398 144.837C188.926 144.687 184.754 144.574 180.883 144.499C171.405 144.349 165.332 142.775 162.662 139.777L160.66 142.026C163.196 144.799 164.464 148.547 164.464 153.269V179.128C164.464 196.368 164.531 209.26 164.664 217.805H187.391C198.804 217.805 206.88 216.681 211.619 214.432C216.424 212.183 219.828 209.597 221.83 206.674ZM170.872 323.828C170.872 327.276 169.737 329 167.468 329C165.265 329 164.164 327.576 164.164 324.728C164.164 321.954 164.297 319.518 164.564 317.42C164.898 315.321 165.432 312.622 166.166 309.324C166.9 306.101 167.334 304.078 167.468 303.253C167.668 304.228 168.035 305.839 168.569 308.088C169.103 310.411 169.503 312.21 169.77 313.484C170.504 317.007 170.872 320.455 170.872 323.828Z" fill="#B3F2FF"/>
</svg>
