<svg width="14" height="14" viewBox="0 0 14 14" fill="none" xmlns="http://www.w3.org/2000/svg">
<path d="M2.33337 0.333374C1.80294 0.333374 1.29423 0.544088 0.91916 0.91916C0.544088 1.29423 0.333374 1.80294 0.333374 2.33337V4.33337C0.333374 4.70156 0.631851 5.00004 1.00004 5.00004C1.36823 5.00004 1.66671 4.70156 1.66671 4.33337V2.33337C1.66671 2.15656 1.73695 1.98699 1.86197 1.86197C1.98699 1.73695 2.15656 1.66671 2.33337 1.66671H4.33337C4.70156 1.66671 5.00004 1.36823 5.00004 1.00004C5.00004 0.631851 4.70156 0.333374 4.33337 0.333374H2.33337Z" fill="#2D3648"/>
<path d="M9.66671 0.333374C9.29852 0.333374 9.00004 0.631851 9.00004 1.00004C9.00004 1.36823 9.29852 1.66671 9.66671 1.66671H11.6667C11.8435 1.66671 12.0131 1.73695 12.1381 1.86197C12.2631 1.98699 12.3334 2.15656 12.3334 2.33337V4.33337C12.3334 4.70156 12.6319 5.00004 13 5.00004C13.3682 5.00004 13.6667 4.70156 13.6667 4.33337V2.33337C13.6667 1.80294 13.456 1.29423 13.0809 0.91916C12.7058 0.544088 12.1971 0.333374 11.6667 0.333374H9.66671Z" fill="#2D3648"/>
<path d="M1.66671 9.66671C1.66671 9.29852 1.36823 9.00004 1.00004 9.00004C0.631851 9.00004 0.333374 9.29852 0.333374 9.66671V11.6667C0.333374 12.1971 0.544088 12.7058 0.91916 13.0809C1.29423 13.456 1.80294 13.6667 2.33337 13.6667H4.33337C4.70156 13.6667 5.00004 13.3682 5.00004 13C5.00004 12.6319 4.70156 12.3334 4.33337 12.3334H2.33337C2.15656 12.3334 1.98699 12.2631 1.86197 12.1381C1.73695 12.0131 1.66671 11.8435 1.66671 11.6667V9.66671Z" fill="#2D3648"/>
<path d="M13.6667 9.66671C13.6667 9.29852 13.3682 9.00004 13 9.00004C12.6319 9.00004 12.3334 9.29852 12.3334 9.66671V11.6667C12.3334 11.8435 12.2631 12.0131 12.1381 12.1381C12.0131 12.2631 11.8435 12.3334 11.6667 12.3334H9.66671C9.29852 12.3334 9.00004 12.6319 9.00004 13C9.00004 13.3682 9.29852 13.6667 9.66671 13.6667H11.6667C12.1971 13.6667 12.7058 13.456 13.0809 13.0809C13.456 12.7058 13.6667 12.1971 13.6667 11.6667V9.66671Z" fill="#2D3648"/>
</svg>
