<!DOCTYPE svg PUBLIC "-//W3C//DTD SVG 1.1//EN" "http://www.w3.org/Graphics/SVG/1.1/DTD/svg11.dtd">

<!-- Uploaded to: SVG Repo, www.svgrepo.com, Transformed by: SVG Repo Mixer Tools -->
<svg fill="#c6f5ff" width="800px" height="800px" viewBox="0 0 24 24" xmlns="http://www.w3.org/2000/svg">

<g id="SVGRepo_bgCarrier" stroke-width="0"/>

<g id="SVGRepo_tracerCarrier" stroke-linecap="round" stroke-linejoin="round"/>

<g id="SVGRepo_iconCarrier">

<path d="M4,20H16V15a1,1,0,0,1,2,0v6a1,1,0,0,1-1,1H3a1,1,0,0,1-1-1V15a1,1,0,0,1,2,0Zm5-8v4a1,1,0,0,0,2,0V12a5.006,5.006,0,0,1,5-5h2.683L17.444,8.314A1,1,0,1,0,18.9,9.686l2.808-2.978v0l.02-.02a1.026,1.026,0,0,0,.088-.14.928.928,0,0,0,.108-.171.993.993,0,0,0,0-.75.948.948,0,0,0-.108-.171,1.026,1.026,0,0,0-.088-.14l-.02-.02v0L18.9,2.314a1,1,0,1,0-1.455,1.372L18.683,5H16A7.009,7.009,0,0,0,9,12Z"/>

</g>

</svg>