<svg xmlns="http://www.w3.org/2000/svg" version="1.1" xmlns:xlink="http://www.w3.org/1999/xlink" xmlns:svgjs="http://svgjs.dev/svgjs" viewBox="0 0 800 800" opacity="0.33"><defs><linearGradient x1="50%" y1="0%" x2="50%" y2="100%" id="ssscribble-grad"><stop stop-color="hsl(162, 100%, 58%)" stop-opacity="1" offset="0%"></stop><stop stop-color="hsl(270, 73%, 53%)" stop-opacity="1" offset="100%"></stop></linearGradient></defs><g fill="none" stroke-width="1" stroke="url(#ssscribble-grad)" stroke-linecap="round"><path d="M954.38 79.8C850.03 109.14 957.62 129.65 1213.01 142.93 1485.13 157.92 1630.59 169.21 1581.5 181.07 1364.13 200.36 1083.99 227.67 868.95 269.39 807.48 326.69 917.95 405.83 1139.44 510.22 1378.87 629.69 1530.01 768.9 1537.34 919.05 1400.59 1057.7 1171.48 1179.07 930.5 1263.43 746.49 1294.53 673.3 1265.34 716.57 1173.39 855.79 1040.52 1037.03 883.56 1204.95 738.14 1324.31 649.5 1360.59 640.84 1313.48 730.01 1194.03 902.75 1030.09 1126.42 853.36 1344.92 679.94 1492.23 539.28 1526.75 440.64 1431.12 382.64 1240.34 365.71 1015.32 378.56 841.57 418.02 795.02 467.99 899.78 517.67 1127.19 573.4 1389.01 617.92 1583.35 647.85 1624.52 676.17 1493.95 688.89 1245.25 686.64 990.81 683.27 855.21 666.72 903.64 637.38 1119.88 608.04 1399.96 566.61 1603.42 512.82 1636.18 457.93 1486.78 388.89 1226.21 305.24 973.44 219.98 834.32 121.11 863.81 12.14 1037.95 -90.75 1282.81 -192.84 1490.49 -283.14 1580.53 -346.83 1522.63 -379.49 1338.68 -369.67 1097.22 -319.2 872.59 -225.31 736.48 -97.11 718.72 34.39 815.43 154.66 984.96 232.13 1170.08 237.26 1325.91 160.69 1404.9 2.88 1393.77 -203.49 1297.84 -421.35 1140.8 -595.21 957.41 -673.13 771.08 -632.61 616.81 -479.15 509.87 -268.72 453.06 -68.04 447.12 42.53 479.42 9.03 544.63 -166.01 622.56 -426.95 699.45 -669.94 778.49 -799.51 841.25 -754.6 884.7 -556.12 918.73 -289.99 933.67 -83.94 932.96 -46.17 925.37 -200.27 907.66 -478.19 883.67 -739.38 857.69 -849.95 829.25 -745.6 799.91 -481.68 770.57 -201.96 741.02 -51.64 709.85 -103.5 676.7 -323.91 638.1 -595.52 590.35 -788.58 535.73 -807.15 466.43 -648.63 379.17 -384.01 282.49 -131.15 167.62 8.66 37.74 -12.21 -89.99 -173.86 -217.5 -400.14 -330.88 -606.93 -411.37 -710.34 -452.19 -679.4 -440.6 -526.06 -378.88 -302.29 -268.29 -76.37 -123.93 98.79 17.47 179.22 134.22 160.46 191.69 55.6 164.37 -95.59 48.76 -250.53 -141.71 -384.15 -361.47 -461.5 -563.67 -474.95 -690.93 -427.86 -703.72 -330.43 -596.04 -202.88 -397.58 -53.28 -182.29 93.58 -22.26 225.17 14.13 344.97 -97.4 439.18 -324.18 509.61 -585.6 563.77 -776.3 600.61 -819.8 626.7 -692 644.41 -450.55 659.47 -198.62 676.66 -55.03 691.83 -93.58 713.2 -300.02 742.54 -580.1 771.88 -796.34 808.49 -841.8 850.47 -700.39 890.44 -440.15 931.69 -182.81 969.31 -40.92 998.55 -70.77 1016.07 -251.09 1015.13 -496.36 997.94 -707.22 955.83 -792.88 886.88 -724.82 806.14 -529.56 708.85 -280.63 607.43 -63.68 528.05 58.11 477.39 52.02 475.52 -64.73 534.19 -252.67 655.21 -443.68 830.82 -581.77 1027.74 -636.3 1219.22 -591.02 1362.53 -463.92 1419.75 -280.05 1375.94 -82.81 1235.42 92.04 1044.14 225.97 853.04 298.82 730.25 312.95 729.86 273.81 861.7 199.21 1094.66 108.74 1347.11 6.76 1532.67 -82.86 1575.05 -151.49 1456.74 -205.02 1222.98 -232.06 974.92 -236.13 832.95 -224.61 865.54 -197.57 1069.92 -161.53 1352.85 -118.05 1581.9 -73.03 1639.56 -30.88 1495.04 12.98 1218.3 50.46 954.38 79.8Q954.38 79.8 954.38 79.8" opacity="0.75"></path><path d="M920.45 6.93C816.05 35.1 907.73 65.75 1143.74 100.05 1412.05 136.11 1581.25 179.17 1577.08 232.27 1404.42 291.2 1141.37 364.56 900.82 454.6 775.59 551.67 810.37 664.46 978.19 789.16 1211.85 909.36 1413.34 1027.02 1510.24 1129.35 1473.06 1199.98 1314.9 1233.02 1091.29 1217.43 863.25 1156.12 697.85 1049.71 629.66 911.44 665.89 774.41 784.68 657.14 944.36 591.19 1111.2 602.12 1237.67 695.71 1300.93 864.83 1295.81 1072.97 1223.78 1280.52 1104.12 1434.45 949.82 1490.42 789.07 1431.97 640.72 1270.75 507.61 1062.06 406.3 868.5 336.7 761.87 293.62 789.4 275.37 948.92 273.21 1192.71 286.34 1431.46 303.75 1578.64 318.64 1572.33 338.3 1414.92 349.16 1166.54 348.25 931.78 348.03 817.75 334.36 875.5 306.2 1085.87 278.03 1355.27 236.04 1558.4 181.39 1608.25 127.44 1487.14 62.51 1248.64 -10.25 994.41 -78.26 823.24 -147.85 799.82 -212.08 922.78 -261.02 1142.18 -292.8 1366.83 -298.53 1514.02 -277.74 1536.63 -224.03 1426.18 -137.17 1224 -35.07 988.84 80.77 792.89 191.66 684.55 267.91 683.55 298.01 779.69 262.84 935.34 159.28 1113.32 -5.86 1260.74 -209.63 1346.11 -406.22 1357.93 -560.16 1293.34 -629.65 1171.09 -594.72 1007.94 -460.69 835.47 -261.98 677.21 -67.69 541.6 63.16 446.23 75.22 391.35 -46.79 373.52 -271.24 386.56 -525.54 419.06 -714.01 470.39 -767.13 524.61 -657.8 573.66 -433.14 625.3 -183.54 664.41 -21.75 689.18 -28.46 711.76 -205.94 720.2 -479.82 715.43 -721.41 709.59 -815.94 692.37 -711.54 664.21 -459.58 636.04 -187.24 597.6 -25.53 548.58 -47.16 498.49 -235.43 436 -495.91 360.3 -713.35 282.42 -787.15 191.14 -690.85 88.4 -465.54 -11.75 -205.08 -115.99 -9.06 -216.14 57.02 -297.46 -22.77 -358.12 -205.74 -386.54 -426.87 -377.93 -600.95 -327.47 -673.32 -235.28 -625.95 -120.44 -474.01 10.1 -265.21 132.96 -47.12 214.93 123.64 240.85 216.96 192.14 223.67 69.87 153.45 -112.68 34.63 -323.92 -111.72 -512.85 -246.18 -640.37 -345.98 -668.72 -405.29 -589.73 -411.83 -421.1 -372.55 -211.05 -293.81 -33.99 -189.5 53.53 -74.26 10.31 51.88 -157.49 170.7 -400.47 276.01 -635.78 376.41 -774.67 459.7 -764.74 527.12 -604.47 588.89 -361.13 638.54 -130.89 678.98 -15.31 717.57 -70.68 750.38 -276.62 778.54 -546.02 806.71 -756.43 829.56 -811.39 845.84 -691.83 860.27 -451.52 864.67 -194.84 856.02 -26.52 841.72 -9.29 810.61 -143 761.32 -365.85 707.11 -593.76 638.31 -734.95 560.98 -741.87 494.55 -614.61 437.84 -398.1 405.35 -164.29 412.31 22.06 463.75 107.82 566.47 81.19 709.68 -43.4 886.07 -219.58 1072.73 -394.46 1231.86 -530.33 1340.75 -588.77 1370.95 -562.8 1314.55 -459.93 1178.94 -303.98 994.11 -126.65 818.57 51.91 697.99 200.24 679.95 304.97 781.64 363.97 983.02 375.83 1229.28 351.45 1437.37 295.37 1540.12 225.3 1494.68 153.92 1319.31 78.03 1077.18 15.27 867.77 -30.7 787.36 -69.63 874.62 -90.81 1102.92 -96.62 1374.27 -96.6 1570.83 -85.6 1598.03 -66.81 1441.9 -46.24 1172.41 -21.23 920.45 6.93Q920.45 6.93 920.45 6.93" opacity="0.56"></path><path d="M888.25 188.97C782.58 215.96 857.41 254.09 1072.51 303.37 1333.73 353.39 1522.48 415.78 1561.42 490.66 1437.87 566.62 1203.83 654.4 953.63 751.46 777.12 844.41 736.6 939.22 834.92 1028.07 1032.92 1098.14 1251.45 1147.56 1414.71 1166.27 1475.17 1151.27 1412.26 1097.98 1250.95 1006.99 1033.39 896.22 821.44 771.06 664.11 652.24 588.28 569.96 604.16 537.51 693.76 572.88 835.78 677.85 988.57 843.25 1119.71 1044.2 1214.23 1236.22 1251 1383.8 1231.26 1448.17 1160.91 1411.77 1053.31 1280.4 926.18 1086.49 784.54 892.82 649.47 754.09 530.15 722.21 421.98 816.4 336.45 1014.23 271.64 1257.17 220.54 1461.81 184.5 1559.23 158.06 1509.49 138.73 1331.51 122.22 1088.12 104.49 874.5 88.52 781.32 67.8 847.39 40.8 1051.61 13.81 1310.22 -18.8 1512.02 -55.41 1577.23 -90.25 1483.73 -125.55 1269.95 -157.13 1020.84 -181.59 825.84 -195.56 754.37 -193.43 822.88 -177.59 1003.45 -140.01 1224.88 -78.61 1409.86 -6.07 1503.12 83.37 1472.96 180.69 1334.11 263.5 1124.9 328.08 906.31 356.82 732.92 334.96 638.96 258.02 641.23 124.87 725.98 -44.88 871.09 -234.74 1033.09 -412.13 1174.86 -537.11 1275.9 -586.69 1312.57 -542.73 1284.8 -417.27 1199.2 -235.38 1072.41 -45.92 925.69 87.27 768.64 124.02 624.97 39.49 505.23 -147.84 408.37 -388.36 342.78 -606.16 304.37 -724.26 289.12 -701.31 291.45 -540.04 303.35 -305.07 326.56 -83.92 349.56 29.2 367.15 -20.15 387.82 -216.84 398.68 -483.4 397.7 -703.84 397.06 -781.4 383.62 -675.73 356.63 -434.87 329.64 -171.09 289.73 -1.57 237.79 3.3 186.2 -152.78 123.53 -395.94 51.96 -626.83 -16.54 -746.28 -89.54 -711.17 -161.72 -537.09 -222.59 -291.63 -272.86 -63.81 -304.39 74.41 -312.76 81.21 -292.79 -32.37 -240.24 -226.18 -164.83 -428.46 -64.18 -576.39 51.25 -633.22 156.37 -581.44 242.98 -441.26 289.96 -243.94 279.11 -39.67 205.38 130.38 68.95 243.14 -108.18 281.19 -303.88 251.59 -480.86 164.51 -597.48 47.28 -629.81 -74.74 -563.95 -191.94 -418.67 -278.93 -226.23 -328.91 -41.11 -345.22 73.66 -324.98 81.82 -277.04 -31.22 -205.26 -235.98 -120.77 -474.98 -32.91 -670.78 62.55 -754.53 151.58 -695.95 230.16 -511.36 308.95 -272.67 375.1 -66.83 427.98 21.31 480.36 -49.22 520.17 -253.76 547.16 -512.37 574.15 -716.59 587.69 -779.92 587.89 -681.4 587.58 -462.45 573.24 -211.11 545.35 -22.71 517.68 37.43 478.65 -47.09 432.16 -236.5 375 -554.33 343.25 -586.83 416.57 -288.72 510.87 -70.74 640.89 86.78 799.69 151.29 963.32 115.02 1120.72 -2.49 1246.42 -162.63 1314.66 -331.72 1313.66 -463.42 1236.28 -533.02 1101.6 -533.01 931.02 -463.49 765.58 -342.59 657.27 -185.14 635.55 -19.81 720.48 132.55 896.52 265.15 1124.95 361.46 1342.84 420.78 1480.51 446.39 1495.7 442.59 1377.26 419.29 1169.23 377.23 941.34 330.36 782.5 286.38 762.62 238.29 894.95 200.52 1136.27 175.47 1389.84 151.49 1553.88 140.91 1554.33 143.46 1390.16 146.76 1129.11 161.98 888.25 188.97Q888.25 188.97 888.25 188.97" opacity="0.88"></path><path d="M852.45 508.35C749.19 534.17 811.41 571.91 1007.27 620.56 1258.08 668.65 1458.63 726.35 1532.75 791.21 1456 852.53 1258.42 916.48 1014.79 977.91 806 1028.15 702.09 1067.02 727.81 1087.38 869.24 1086.72 1071.3 1059.79 1266.34 1003.44 1401.26 927.73 1433.21 829.99 1359.31 719.79 1199.06 620.08 995.9 537.38 797.83 490.48 639.26 496.25 552.13 559.59 541.96 682 603.49 845.87 713.95 1033.47 845.12 1212.94 980.91 1345.36 1090.45 1406.71 1160.58 1377.94 1190.43 1266.58 1174.76 1093.91 1122.22 902.89 1038.03 752.33 935.58 682.83 826.77 724.2 710.01 871.58 601.04 1089.28 504.58 1315.45 412.22 1477.77 334.96 1525.37 271.81 1437.6 213.21 1245.48 165.72 1011.32 127.08 819.93 89.94 746.71 58.88 820.07 33.07 1017.87 -2.73 1365.33 -38.54 1383.39 -29.67 1051.83 -15.22 841.53 14.21 728.83 59.73 743.09 109.34 875.25 172.45 1075.1 244.47 1276.29 308.53 1423.15 367.35 1469.21 409.14 1406.67 419.29 1252.91 393.81 1050.16 324.16 848.39 214.24 686.3 66.26 598.38 -106.46 592.51 -274.56 663.4 -420.48 786.32 -515.85 929.91 -539.53 1073.33 -484.62 1183.48 -356.53 1245.63 -188.96 1257.24 -14.55 1216.3 118.81 1134.32 165.82 1018.67 108.86 887.63 -49.08 755.52 -267.16 623.49 -490.26 507.86 -650.61 412.46 -695.26 331.84 -608.16 272.07 -413.94 229.35 -184.87 199.01 0.36 179.08 67.15 164.5 -16.92 155.61 -225.08 146.31 -481 133.3 -681.97 121.61 -746.8 103.49 -643.54 77.68 -415.42 51.86 -160.27 18.95 17.54 -19.64 50.16 -56.91 -70.43 -97.17 -289.77 -136.98 -525.34 -171.09 -683.36 -198.99 -709.29 -215.5 -597.02 -219.63 -387.11 -205.73 -151.78 -169.86 39.53 -119.21 129.25 -47.23 101.33 42.4 -30.07 132.11 -216.42 222 -400.32 297.88 -538.37 340.08 -590.39 342.6 -549.73 294.06 -427.05 194.99 -252.51 49.4 -63.65 -127.85 113.11 -305.29 244.65 -460.44 318.5 -561.84 332.87 -586.48 294.17 -527.33 219.28 -392.14 116.46 -217.26 10.37 -39.52 -84.26 91.22 -167.84 130.75 -224.35 63.68 -253.37 -102.07 -261.16 -322.18 -245.77 -538.85 -213.91 -685.61 -168.42 -714.47 -115.75 -614.14 -61.92 -413.82 -3.02 -185.77 51.16 -6.26 97.41 55.59 144.63 -28.23 181.8 -230.31 207.62 -478.02 233.44 -675.86 247.3 -746.66 250.37 -668.37 254.41 -471.9 249.77 -230.14 239.56 -28.03 234.42 69.73 229.58 34.49 230.94 -113.22 245.92 -324.83 276.39 -525.72 328.93 -654.2 402.68 -676.67 502.83 -586.14 628.81 -412.56 765.84 -198.51 913.08 -0.81 1055.7 137.44 1170.38 193.1 1247.51 160.51 1270.09 58.58 1233.18 -90.39 1137.1 -245.77 994.17 -375.8 839.15 -464.38 696.84 -492.27 604.64 -461.09 594.46 -377.26 675.24 -256.12 840.17 -116.62 1050.96 33.36 1262.33 172.26 1416.76 290.36 1467.71 389.11 1399.04 459.68 1226.64 505.08 913.69 532.95 845.12 510.41 1175.83 489.72 1405.13 473.55 1533.33 465.41 1505.82 467.61 1333.1 469.24 1080.57 482.53 852.45 508.35Q852.45 508.35 852.45 508.35" opacity="0.85"></path><path d="M818.38 757.13C716.29 781.77 765.07 811.45 940.62 844.86 1178.44 876.97 1386.63 910.17 1492.21 941.32 1462.41 967.13 1308.29 985.7 1084.86 992.54 860.49 988.48 705.66 967.33 660.04 926.14 730.76 872.95 888.42 801.22 1081.01 714.8 1259.6 630.21 1370.94 546.75 1391.02 477.08 1318.33 438.71 1171.66 436.57 986.65 480.93 794.47 571.81 635.02 706.54 530.52 873.32 489.3 1044.94 511.35 1202.46 581.73 1317.31 689.6 1365.44 808.47 1336.87 919.2 1231.96 1017.05 1076.49 1083.56 898.96 1116.2 742.94 1119.19 654.91 1092.05 658.78 1042.85 763.61 974.15 946.49 895.9 1165.35 815.67 1361.29 729 1476.2 648.21 1476.32 576.73 1356.98 504.75 1157.11 444.06 935.94 395.39 767.44 347.03 713.14 310.35 792.77 285.7 983.88 261.06 1220.61 249.03 1416.88 249.39 1507.36 250.05 1465.6 263.44 1306.47 288.93 1084.77 313.94 867.68 349.07 722.06 391.03 685.53 426.54 763.97 461.02 927.23 487 1123.24 493.5 1301.91 478.99 1410.59 435.53 1425.15 362.42 1344.89 256.63 1190.52 120.79 999.81 -27.92 807.46 -183.47 654.37 -326.6 563.34 -432.24 542.9 -488.13 589.35 -479.22 684.42 -407.02 813.26 -278.33 945.52 -115.25 1059.91 100.26 1171.91 93.55 1130.04 -174.63 1006.05 -389.2 897.13 -566.95 784.05 -655.73 675.22 -628.17 566.52 -489.39 470.57 -278.92 388.99 -69.41 313.82 72.94 252.44 93.22 202.74 -21.86 157.62 -237.3 120.55 -480 89.18 -660.42 59.16 -711.7 32.26 -609.61 7.61 -393.34 -17.03 -147.89 -38.83 34.69 -56.82 90.68 -73.46 3.9 -83.69 -187.59 -85.06 -417.66 -81.84 -601.61 -66.12 -679.9 -35.67 -630.94 1.17 -471.25 53.34 -253.32 119.33 -36.72 185.45 116.37 256.89 171.83 325.35 122.11 374.83 -10.54 403.65 -183.9 400.63 -359.16 358.78 -487.79 275.61 -544.36 151.61 -521.89 1.96 -425.9 -164.12 -279.78 -325.27 -104.09 -452.66 67.57 -529.89 212.28 -538.57 320.32 -476.66 379.06 -351.03 391.82 -184.35 362.63 -19.29 304.23 111.21 230.64 169.5 143.56 132.98 61.73 4.25 -7.24 -192.47 -69.31 -406.55 -112.13 -585.87 -136.48 -678.24 -150.55 -655.65 -149.65 -521.83 -137.8 -314.26 -120.1 -102.07 -96.69 49.82 -70.91 86.75 -43.57 -8.55 -16.91 -207.28 7.73 -444.01 32.37 -635.16 54.42 -712.34 75.09 -653.2 97.31 -479.86 121.2 -251.44 149.99 -42.03 184.61 86.83 229.37 98.51 288.16 -2.45 357.22 -184.48 443.81 -387.3 548.6 -552.13 660.29 -638.91 783.77 -622.72 911.31 -512.71 1025.37 -334.72 1123.06 -133.3 1190.23 47.83 1215.46 178.41 1193.4 234.43 1120.62 215.41 1011.18 129.66 873.35 2.91 729.96 -136.4 616.15 -270.89 550.92 -371.78 557.54 -427.4 643.21 -436.5 799.29 -397.68 1000.21 -321.32 1199.24 -213.67 1355.78 -90.93 1427.48 34.13 1394 161.01 1260.98 274.39 1062.45 370.3 862.58 454.2 718.94 519.12 683.89 567.9 776.09 605.77 971.81 632.86 1211.39 653.53 1412.4 668.86 1506.43 682.95 1455.32 698.86 1277.6 713.45 1034.65 732.48 818.38 757.13Q818.38 757.13 818.38 757.13" opacity="0.87"></path><path d="M784.37 774.03C683.75 797.5 719.91 816.42 875.21 830.06 1097.69 842.53 1308.43 847.55 1439.56 843.16 1453.61 835.05 1346.48 814.75 1154.83 780.8 932.53 742.21 744.4 690.22 637.59 626.79 634.19 565.03 728.12 499.91 886.53 439.07 1071.58 396.71 1231.18 374.03 1329.83 380.75 1351.17 422.7 1290.31 502.21 1164.84 619.1 995.55 760.15 816.79 918.27 656.86 1075.26 494.57 1249.4 498.28 1234.56 617.72 1035.24 720.21 872.56 817.64 724.28 899.95 626.86 969.66 609.91 1014.69 681.41 1035.93 833.48 1039.17 1032.09 1023.25 1234.83 993.83 1390.28 953.15 1455.85 906.61 1412.89 859.17 1269.1 807.39 1067.6 759.59 862.65 718.55 717.37 676.62 680.86 643.34 765.78 619.87 949.97 596.4 1175.62 583.29 1367.72 579.5 1468.02 574.82 1449.72 577.57 1319.1 585.08 1118.1 588.26 902.33 591.32 733.04 589.41 651.91 576.24 675.6 550.48 791.62 506.55 963.4 444.64 1150.4 359.95 1301.18 251.69 1382.39 130.84 1380.22 -3.99 1295.31 -142.65 1149.61 -265.5 968.34 -365.98 788.61 -428.12 639.49 -440.84 537.55 -399.57 496.34 -304.79 512.53 -175.62 579.95 -26.16 679.84 115.41 792.78 213.15 910.22 247.88 1009.79 202.11 1082.07 79.01 1127.74 -103.33 1139.47 -309.31 1121.47 -488.65 1077.71 -601.71 1014.31 -615.51 939.45 -525.91 852.54 -353.07 764.81 -144.01 681.5 34.39 596.12 130.31 519.77 107.2 453.99 -32.97 389.23 -250.62 335.2 -477.75 291.78 -637.69 248.92 -676.23 215.73 -575.61 192.26 -371.1 168.78 -136.04 155.59 49.13 152.73 125.6 150.43 71.53 159.41 -88.87 179.9 -304.88 201.41 -503.11 234.28 -623.91 277.07 -635.84 317.8 -535.53 363.85 -355.4 410.08 -141.02 444.26 49.92 468 174.32 473.22 209.68 452.67 154.23 403.52 30.64 321.68 -134.03 213.23 -295.76 78.72 -421.08 -72.29 -492.3 -218.81 -493.91 -350.94 -431.52 -449.12 -315.29 -496.07 -167.17 -484.16 -10.04 -409.93 144.27 -288.53 273.38 -134.93 368.73 21.89 430.11 143.15 454.82 205.31 449.86 186.54 418.12 84.4 371.01 -85.5 317.91 -289.71 255.97 -478.69 199.51 -609.99 152.99 -646.93 107.76 -579.04 75.63 -420.96 56.66 -214.25 40.48 -22.3 35.97 101.39 41.84 115.05 48.74 10.11 64.17 -184.36 87.64 -410.01 111.11 -594.2 142.07 -676.74 180.89 -635.59 220.74 -485.67 270.3 -273.81 330.75 -63.25 393.98 89.59 469.59 143.76 557.41 91.43 646.52 -50.77 744.66 -238.22 847.29 -419.63 941.06 -554.49 1027.84 -606.86 1098.12 -568.98 1141.62 -450.62 1154.32 -279.59 1129.12 -92.48 1069.95 80.95 975.77 207.72 855.03 272.65 731.48 271.86 615.59 212.79 530.13 113.6 498.51 -12.62 529.41 -138.51 628.35 -245.97 781.38 -329.28 969.25 -373.85 1158.37 -379.62 1306.4 -350.17 1384.59 -290.08 1370.17 -209.18 1266.7 -109.8 1094.88 -5.01 897.71 97.42 734.78 201.53 649.76 295.2 674.93 376.38 808.98 452.91 1018.42 516.69 1243.48 569.08 1412.95 617.73 1473.93 657.76 1402.1 691 1221.56 723.09 988.88 750.55 784.37 774.03Q784.37 774.03 784.37 774.03" opacity="0.60"></path><path d="M750.38 548.16C651.59 570.46 676.06 582.2 811.42 583.53 1016.64 584.52 1225.11 574.58 1375.43 553.91 1428.57 532.98 1369.14 502.04 1217.77 462.88 1013.57 426.77 811.47 387.06 659.53 348.63 588.32 322.2 610.11 306.44 711.02 308.39 867.52 333.73 1037.43 385.13 1183.41 465.97 1282.08 570.32 1311.37 698.25 1271.08 841.65 1169.3 981.9 1026.02 1111.13 865.67 1212.15 704.08 1268.5 566.34 1272.59 464.56 1218.84 401.88 1117.21 381.84 977.88 397.53 823.53 445.21 688.59 511.56 595.18 585.34 568.06 667.04 619.36 741 744.25 802.06 923.2 856.53 1117.86 894.13 1290.02 915.84 1398.58 929.14 1416.11 929.64 1336.33 920.58 1175.68 906.77 978.29 887.63 792.17 865.85 669.94 842.78 649.86 819.56 738.93 797.26 915.88 774.96 1130.38 754.11 1317.52 733.75 1425.83 712.1 1429.13 688.45 1326.98 660.2 1150.12 627.21 943.09 585.4 759.76 531.64 642.36 469.47 614.3 392.27 677.39 299.16 809.98 199.46 982.95 87.81 1151.7 -30.5 1280.3 -140.88 1347.68 -242.78 1338.9 -324.83 1260.27 -374.88 1125.45 -388.03 960.67 -357.26 793.25 -287.39 641.56 -180.26 528.75 -47.9 463.66 83.22 447.98 198.67 477.79 274.11 541.31 288.08 632.4 233.95 732.18 112.07 827.84 -57.12 918.19 -248.64 988.19 -425.03 1034.82 -545.83 1062.31 -585.79 1066.27 -530.92 1050.96 -395.33 1019.82 -207.74 976.62 -16.13 926.86 122.64 869.23 171.42 811.43 109.68 757.15 -49.24 700.37 -264.27 650.27 -473.9 608.66 -613.67 566.64 -640.4 534.07 -541.61 511.76 -348.78 489.46 -124.7 477.97 60.98 476.55 154.92 474.72 131.75 482.02 4.38 496.74 -190.3 508.97 -391.37 525.47 -542.89 542.64 -608.68 551.95 -570.56 555.55 -442.78 548.05 -255.48 524.74 -55.49 483.1 113.45 419 221.5 335.77 249.08 230.23 199.89 105.52 86.6 -24.5 -60.11 -157.47 -208.96 -280.47 -382.02 -406.13 -390.95 -371.59 -242.17 -203.75 -105.08 -62.66 37.38 77.29 171.09 188.9 293.17 244.34 389.99 231.53 459.86 144.28 505.94 -4.19 527.81 -191.1 531.44 -380.42 518.32 -529.37 496.39 -607 471.76 -591.56 440.28 -486.77 412.81 -314.1 392.68 -115.68 371.05 52.58 359.24 148.2 358.43 140.53 357.54 27.85 367.99 -161.51 390.29 -376.01 412.58 -552.99 446.21 -639.85 490.53 -615.4 534.77 -488.79 589.38 -296.12 653.06 -90.11 715.25 79.16 784.03 169.61 855.96 164.69 921.05 68.74 982.58 -88.89 1034.35 -267.21 1069.36 -429.83 1085.17 -536.56 1075.7 -567.99 1042.45 -520.99 981.17 -405.97 893.46 -247.82 794.12 -70.25 684.84 93.9 579.65 221.87 500.56 301.95 455.61 325.7 459.41 298.58 518.35 226.79 631.05 128.18 788 19.83 963.18 -91.65 1134.73 -186.39 1271.23 -256.38 1343.64 -302.85 1337.67 -318.72 1249.51 -307.45 1100.45 -272.78 918.63 -219.34 747.68 -154.26 636.24 -77.19 612.65 2.11 691.02 78.68 855.12 158.3 1066.84 230.54 1270.13 293.52 1406.11 356.25 1435.84 408.98 1346.31 451.43 1165.03 493.53 943.21 525.86 750.38 548.16Q750.38 548.16 750.38 548.16" opacity="0.86"></path><path d="M716.38 226.08C619.77 247.2 633.52 258.73 749.45 261.43 935.91 264.65 1137.7 260.17 1300.74 249.78 1386.9 242.08 1373.25 231.62 1267.27 221.78 1094.38 219.55 897.21 223.64 719.76 238.75 595.1 268.07 547.58 314.33 579.25 380.84 680.73 463.69 824.58 566.18 979.27 685.38 1121.64 808.63 1221.52 934.58 1265.62 1052.09 1251.37 1145.46 1181.79 1208.53 1071.2 1230.35 930.86 1207.26 782.67 1138.2 643.09 1028.49 518.34 897.79 422.83 759.03 359.25 635.46 325.91 554.21 321.6 528.75 339.29 570.92 377.45 677.82 425.48 836.16 476.12 1020.41 533.12 1193.59 584.2 1324.64 626.08 1383.82 666.93 1357.33 696.3 1248.18 714.1 1078.22 729.82 890.06 735.09 724.77 730.79 625.16 725.72 620.14 712.48 712.4 691.35 881.88 670.23 1085.15 641.72 1266.49 605.64 1380.9 568.79 1403.58 522.99 1329.12 467.43 1178.8 409.79 987 341.28 799.21 262.1 655.46 181.9 582.3 93.29 591.95 -0.31 675.75 -87.55 816.04 -171.28 978.51 -244.12 1130.07 -296.5 1247.79 -325.86 1307.32 -325.09 1302.34 -294.06 1235.92 -230 1120.34 -135.47 975.58 -26.12 816.93 93.06 668.63 205.7 546.16 288.61 456.06 331.83 406.94 321.12 396.58 252.09 422.27 128.68 474.74 -35.67 543.34 -212.36 626.16 -376.68 708.11 -497 781.91 -547.51 850.95 -517.21 904.02 -408.04 940.3 -246.07 965.85 -62.66 975.76 98.31 972.96 192.36 961.91 195.93 942.63 101.61 918.54 -69.57 890.53 -277.58 861.52 -468.21 833.85 -588.33 805.21 -604.22 779.84 -507.61 758.71 -326.36 737.58 -113.79 721.21 70.42 708.7 178.7 695.22 183.98 683.69 90.33 671.85 -77.31 656.12 -270.62 636.26 -440.08 608.99 -549.05 573.47 -569.85 526.04 -501.93 463.9 -360.9 391.02 -179.38 302.25 4.65 198.52 160.92 90.05 260.02 -25.57 290.96 -140.96 253.49 -242.12 161.22 -326.04 36.25 -381.98 -104.79 -401.85 -232.96 -381.76 -330.51 -319.35 -390.93 -224.58 -404.11 -102.65 -373.53 31.04 -303.98 150.87 -206.15 242.94 -92.69 287.38 32.65 270.38 154.13 190.4 264.13 53.85 365.07 -116.54 447.26 -296.22 510.91 -452 560.86 -551.31 595.2 -574.75 617.93 -513.53 631.34 -381.72 638.85 -204.03 644.35 -20.38 645.83 121.79 649.47 190.07 657.67 163.25 664.94 44.69 678.66 -138.75 699.78 -342.02 720.91 -511.53 748.93 -601.69 782.8 -592.53 815.75 -488.78 852.66 -317.28 891.01 -120.97 941.17 116.78 999.1 108.98 987.37 -107.33 960.33 -276.11 913.85 -417.24 847.6 -505.32 772.29 -528.66 684.49 -482.76 591.69 -379.53 510.78 -233.97 444.38 -71.69 405.05 83.95 404.68 218.61 446.84 314.06 534.94 364.84 660.16 370.73 814.69 336.68 980.69 273.55 1130.61 186.27 1246.42 91.77 1305.91 1.07 1296.98 -85.55 1218.38 -154.38 1080.97 -202.55 915.77 -234.38 751.46 -244.96 625.9 -237.67 573.44 -216.18 607.96 -182.76 728.83 -142.21 910.19 -94.05 1113.59 -44.45 1289.41 3.07 1391.24 53.31 1392.23 98.33 1288.16 136.26 1108.15 174.71 897.72 204.94 716.45 226.07Q716.38 226.08 716.38 226.08" opacity="0.71"></path><path d="M682.45 16.88C588.33 36.84 592.31 53.83 689.5 68.63 856.12 84.34 1047.34 99.63 1216.74 116.48 1328.98 136.86 1356.87 162.13 1297.89 195.05 1165.75 235.06 990.22 286.32 807.85 350.96 649.58 424.29 545.39 511.48 508.58 611.37 541.24 714.27 631.6 822.85 758.4 930.57 903.74 1025.05 1038.21 1104.14 1142.24 1158.52 1207.03 1180.85 1221.7 1167.55 1188.95 1115.72 1113.86 1032.93 1008.02 922.3 885.36 795.69 752.05 675.12 624.87 572 512.56 504.83 415.11 489.71 341.26 531.44 290.42 630.39 259.54 773.09 247.54 942.37 249.24 1111.74 264.11 1249.72 285.1 1333.68 307.41 1344.89 335.23 1280.76 359.2 1150.55 376.63 978.59 395.43 804.08 405.66 660.95 406.21 583.13 406.9 591.68 397.53 686.09 377.58 847.87 357.63 1039.86 327.57 1214.63 288.02 1333.3 248.6 1372.99 200.08 1324.85 143.66 1202.45 88.59 1031.19 27.67 847.9 -36.34 688.45 -94.85 579.53 -151.28 539.97 -200.72 571.31 -236.99 665.92 -258.71 801.13 -260.59 950.26 -242.51 1092.77 -200.46 1201.15 -133.76 1261.03 -52.2 1267.86 45.27 1220.7 150.04 1129.78 244.15 1004.82 322.6 864.29 371.53 724.38 378.14 592.97 338.56 485.42 250.21 407.22 122.62 358.57 -34.05 340.93 -200.16 349.22 -347.73 381.37 -457.43 428.51 -507.88 483.13 -488.87 546.78 -400.94 607.74 -257.3 661.7 -89.55 714.49 72.98 756.24 193.86 786.37 241.58 812.47 204.17 827.61 84.23 833.11 -92.87 835.82 -289.96 831.09 -460.52 820.34 -561.66 808.76 -567.66 792.73 -473.54 772.78 -303.75 752.83 -103.13 729.43 77.72 702.15 197.12 674.04 227.8 640.48 167.3 600.15 30.67 557.03 -145.68 504.93 -320.27 442.64 -459.27 376.32 -530.4 299.13 -522.49 211.77 -439.22 123.24 -298.39 28.57 -128.34 -67.83 45.18 -155.22 190.9 -234.17 289.26 -297.09 331.09 -336.13 314.29 -348.21 248.89 -328.11 144.44 -278.47 22.85 -198.33 -97.33 -93.07 -207.65 20.68 -289.69 136.31 -337.49 237.73 -351.81 305.1 -330.89 330.06 -281.18 302.48 -206.23 221.84 -115.87 94.14 -18.74 -66.15 85.82 -233.08 185.85 -384.55 277.02 -493.81 364.6 -539.79 439.78 -513.25 502.58 -415.61 559.68 -267.43 606.1 -93.67 643.79 69.89 677.97 184.61 706.38 226.92 730.82 183.31 754.26 60.73 775.64 -116.03 795.6 -308.02 815.55 -469.83 833.6 -562.25 849.02 -566.9 863.44 -485.16 873.32 -336.18 876.76 -153.97 876.7 25.68 867.24 165.45 846.34 240.85 819.73 240.94 780 169.99 726.98 46.64 670.4 -108.09 604.08 -261.12 532.27 -386.04 467.89 -467.21 409.34 -489.62 365.14 -453.74 346.18 -365.82 354.96 -240.5 397.82 -96.37 474.17 53.79 583.61 189.33 720.08 298.27 866.42 376.27 1012.9 416.98 1140.92 423.2 1229.87 397.39 1268.88 348 1247.83 284.28 1170.24 207.31 1043.86 130.54 888.12 60.4 735.87 -6.73 611.3 -60.21 542.65 -98.97 549.37 -129.04 633.48 -144.88 783.74 -148.69 969.59 -145.42 1155.48 -133.73 1299.81 -116.49 1368.01 -95.71 1343.2 -72.72 1227.75 -49.56 1050.84 -25.49 852.24 -3.06 682.45 16.88Q682.45 16.88 682.45 16.88" opacity="0.84"></path><path d="M648.38 56.41C557.2 75.19 552.52 98.59 631.93 126.86 778.09 155.8 955.42 190.87 1125.12 233 1255.89 277.28 1319.09 330.24 1305.35 392.58 1219.17 457.73 1078.25 532.38 910.09 615.53 740.41 698.57 599.24 786.26 505.93 874.54 470.06 953.87 493.29 1025.04 565.73 1081.52 677.01 1116.64 804.9 1127.77 930.12 1110.31 1042.38 1066.37 1123.38 994.48 1166.71 898.51 1172.31 792.36 1139.75 680.59 1076.27 576.54 986.28 498.38 881.33 453.62 771.14 453.26 656.75 501.95 550.52 597.73 456.93 732.74 372.64 888.09 304.67 1046.6 252.09 1184.62 210.67 1278.59 181.66 1314.16 161.81 1282.2 149.34 1188.53 141.5 1045.84 135.24 878.6 129.85 661.22 105.1 612.27 79.92 813.88 61.14 994.53 36.83 1162.01 7.86 1283.14 -20.33 1337.35 -51.63 1313.66 -84.02 1219.56 -113.18 1072.84 -140.12 901.95 -161.71 737.42 -175.93 603.87 -180.28 523.25 -171.4 504.17 -151.36 546.8 -115.12 639.57 -61.66 763.95 1.08 904.31 77.38 1035.21 162.83 1139.12 244.08 1207.53 321.08 1229.79 384.2 1206.88 420.81 1142.79 427.59 1046.66 397.38 930.81 329.44 801.89 225.01 675.33 90.57 560.5 -56.82 459.15 -205.61 380.38 -336.44 325.05 -428.43 291.17 -469.87 278.39 -450.74 282.18 -374.18 301.66 -248.31 330.15 -92.4 362.67 61.99 402.19 190.68 439.68 266.27 472.13 269.42 506.08 197.24 532.37 59.23 549.95 -117.71 567.21 -300.56 575.48 -450.45 574.61 -533.57 573.5 -530.79 563.64 -439.61 544.87 -281.21 526.09 -92.92 498.84 82.86 463.38 210.28 427.68 263.01 383.38 234.09 330.71 130.8 277.72 -21.22 216.65 -189.08 148.63 -343.88 82.11 -452.9 11.27 -498.63 -60.78 -476.18 -125.85 -390.19 -186.08 -258.07 -236.4 -98.23 -271.03 62.3 -288.2 201.68 -283.27 306.65 -256.89 364.19 -206.08 373.24 -131.61 336.12 -43.65 263.37 57.12 168.59 161.43 58.67 252.68 -47.85 325.38 -140.27 367.32 -217.11 368.07 -267.44 324.92 -290.63 236.98 -289.67 113.52 -264.8 -35.56 -221.56 -192.67 -161.68 -333.81 -92.37 -441.9 -19.3 -498.31 60.21 -493.01 136.89 -424.64 207.66 -301.71 278.99 -147.78 342.03 14.13 395.99 153.62 449.03 240.49 493.2 258.69 528.6 200.8 563.58 75.98 590.52 -93.37 609.3 -274.02 633.17 -474.72 636.98 -414.73 615.29 -187.35 596.75 -12.86 568.5 138.8 531.24 243.09 494.54 285.67 451.21 262.35 404.23 182.16 363.69 57.91 326.11 -85.28 297.05 -223.89 284.64 -342.16 289.69 -419.76 317.66 -448.91 369.77 -429.02 448.04 -363.37 551.74 -263.04 671.03 -136.83 803.34 -1.63 937.87 129.13 1057.27 249.72 1153.47 347.4 1212.78 418.22 1225.92 462.56 1189.31 479.39 1103.9 473.22 984.08 445.69 841.75 404.46 698.65 355.97 583.27 298.52 512.56 242.56 503.85 192.06 563.32 141.46 684.54 100.15 849.93 69.06 1028.39 40.8 1189.39 22.62 1299.96 13.74 1336.16 7.02 1288.99 7.99 1165.32 15.61 993.26 23.92 806.87 37.63 648.45 56.4Q648.38 56.41 648.38 56.41" opacity="0.51"></path><path d="M614.45 318.96C526.47 336.56 514.09 362.5 576.7 396.41 702.19 430.42 862.95 472.53 1027.46 522.26 1169.16 571.86 1260.18 628.47 1287.05 690.78 1247.79 751.06 1149.83 814.42 1011.44 877.98 693.68 983.34 473.87 1056.1 439.47 1060.93 583.28 991.88 808.4 842.29 1003.78 643.25 1116.51 480.4 1103.53 406.32 996.31 485.68 821.61 707.41 635.64 1000.16 474.85 1228.2 398.64 1274.79 333.04 1265.09 277.82 1197.55 227.03 1083.5 185.15 936.74 150.7 780.11 118.92 642.81 92.32 545.52 69.58 507.56 47.6 538.5 28.03 634.22 10.43 779.87 -7.17 949.14 -22.39 1108.66 -34.7 1230.5 -46.25 1296.65 -53.43 1295.05 -54.85 1228.67 -53.6 1109.08 -44.33 957.1 -25.49 797.39 -2.2 651.11 32.12 540.44 77.82 478.03 177.6 514.38 305.59 714.82 426.02 956.38 478.98 1141.58 441.41 1183.23 282.54 1088.39 41.01 892.45 -225.85 667.8 -406.32 473.18 -408.58 320.22 -220.34 235.49 71.6 202.12 240.34 202.24 226.39 228.58 28.19 241.6 -143.11 250.97 -309.05 254.97 -438.03 252.36 -504.12 250.11 -493.52 240.48 -405.54 222.88 -258.36 205.28 -82.71 180.13 86.37 148.09 218.62 116.41 289.58 78.62 289.53 36.05 220.03 -4.71 97.56 -48.21 -53.36 -92.06 -209.86 -130.92 -341.91 -166.33 -429.44 -194.9 -435.62 -222.55 -232.63 -195.82 55.28 -97.14 306.86 43.2 416.11 217.31 378 367.11 224.79 415.84 40.93 332.47 -106.77 110.63 -206.41 -167.57 -226.66 -399.61 -188.69 -461.81 -153.6 -412.31 -111.85 -313.13 -67.21 -176.8 -17.46 -27.02 31.01 116.55 75.74 229.36 122.15 288.98 162.77 285.42 196.29 215.82 230.1 90.53 256.14 -70.74 273.75 -240.02 295.73 -432.68 297.94 -414.52 281.31 -219.21 269.77 -55.79 253.9 99.38 236.09 223.38 223.4 300.87 212.91 322.05 208.33 288.39 231.37 86.18 309.6 -174.99 463.51 -360.07 665.48 -402.81 899.89 -287.01 1099.25 -78.03 1183.5 167.15 1115.99 367.3 901.07 490.62 649.82 540.08 478.4 525.32 510.38 480.98 610.83 447.94 754.33 415.84 920.77 387.5 1081.63 357.13 1212.51 333.12 1288.8 316.72 1295.65 300.19 1229.87 291.87 1101.11 292.14 935.5 292.51 761.63 301.36 614.45 318.96Q614.45 318.96 614.45 318.96" opacity="0.73"></path><path d="M580.45 634.12C478.12 666.98 632.2 724.6 925.93 799.36 1183.97 866.87 1246.73 935.61 1096.58 985.05 814.9 1000.23 547.18 966.34 402.56 869.54 417.54 737.82 561.02 574.52 751.35 427.21 937.29 363.3 1045.85 411.37 1065.75 589.32 1009.98 843.15 900.08 1095.78 773.17 1234.78 628.49 1190.25 503.09 972.51 407.78 684.96 314.81 496.16 251.65 513.75 218.79 745.87 185.93 1057.2 184.92 1252.59 215.92 1228.61 249.26 1007.36 314.88 712.85 402.61 492.38 472.57 432.29 528.36 541.78 533.48 745.45 462.93 967.32 307.2 1108.89 78.19 1136.45 -155.2 1056.21 -337.64 899.31 -386.84 717.66 -276.43 527.16 -38.18 372.47 219.4 261.96 345.46 179.14 263.99 129.22 -6.72 96.36 -313.13 73.03 -473.87 48.74 -371.54 15.88 -71.52 -16.97 223.52 -56.84 333 -95.49 203.39 -124.6 -69.67 -134.47 -319.25 -108.61 -425.75 -55.06 -334.84 45.49 -109.36 185.34 162.77 316.36 370.33 426.1 462.8 463.29 436.56 392.69 325.85 212.17 187.97 -43.9 39.84 -281.8 -65.52 -420.78 -119.6 -384.81 -142.06 -188.46 -126.71 87.34 -92.56 295.93 -47.95 307.28 -4.64 105.29 28.21 -206.02 61.07 -438.2 81.92 -449.19 99.29 -247.74 127.12 52.49 171.54 288.95 250.95 357.61 361.98 242.73 521.46 19.58 720.23 -200.03 908.76 -343.79 1066.65 -352.93 1135.96 -245.97 1086.56 -55.61 917.96 154.86 680.04 337.23 488.77 484.69 427.33 572.72 557.93 614.49 977.48 617.54 1024.67 598 580.45 634.12Q580.45 634.12 580.45 634.12" opacity="0.21"></path><path d="M546.45 797.29C442.36 827.8 562.2 859.96 822.55 886.95 1088.35 905.75 1214.1 904.33 1152.29 869.84 937.89 813.33 671.15 716.07 457 585.69 352 464.41 377.46 359.69 493.48 314.53 665.84 362.18 825.31 508.85 935.28 736.33 998.09 973.46 998.46 1154.5 956.62 1200.43 883.38 1088.45 799.97 852.73 725.35 594.87 645.34 449.55 586.89 490.05 556.37 711.87 525.86 1002.5 524.74 1202.27 547.19 1218.46 564.27 1052.48 592.17 787.09 612.54 542.5 601.5 404.25 550.87 415.57 441.03 544.92 284.03 745.18 80.76 931.5 -131.58 1050.91 -287.6 1091.41 -349.24 1044.06 -276.01 938.71 -93.64 790.12 145.73 636.68 337.77 501.56 377.21 371.65 234.09 272.06 -43.47 200.65 -315.61 135.18 -441.62 88.75 -337.54 58.23 -61.59 27.71 223.29 14.55 364.18 22.48 298.52 36.33 76.47 80.41 -177.03 157.43 -355.46 239.67 -375.22 342.86 -247.3 444.43 -20.37 502.77 218.19 506.34 400.56 425.86 502.4 266.48 510.91 43.98 455.64 -188.05 350.83 -349.19 241.62 -387.91 153.86 -272.05 72.14 -49.84 25.77 198.17 11.28 352.41 3.6 324.5 17.27 118.59 47.78 -172.02 78.3 -393.89 124.21 -428.27 189.43 -271.21 261.47 -1.58 363.35 251.51 497.94 385.9 638.58 362.36 798.05 208.72 949.89 3.36 1052.18 -192.35 1087.49 -302.85 1025.63 -310.54 883.26 -225.4 680.87 -76.9 485.71 91.39 389.56 268.81 436.68 416.32 637.48 525.72 913.37 613.1 1152.78 670.05 1230.22 708.8 1101.1 739.35 822.4 766.77 546.45 797.29Q546.45 797.29 546.45 797.29" opacity="0.60"></path><path d="M512.45 702.54C408.05 730.7 496.13 739.27 719.53 726.06 978.71 708.58 1149.07 663.07 1168.64 589.07 1039.38 513.15 816.36 420.23 583.5 329.78 397.36 277.08 308.89 270.29 316.28 334.82 405.5 469.84 533.72 667.29 660.68 889.67 783.09 1070.6 864.91 1164.07 904.99 1125.48 920.95 966.65 908.19 731.73 880.78 511.43 845.65 407.92 810.61 467.5 782.44 677.87 754.28 947.28 734.32 1147.31 716.33 1197.56 690.61 1086.59 652.14 863.62 587.36 619.94 498.47 429.91 370.27 352.99 204.45 391.21 34.08 524.45 -134.58 695.69 -260.71 852.34 -305.02 976.34 -249.94 1032.96 -93.13 1027.22 110.4 970.98 308.15 880.73 416.77 780.34 376.55 665.97 190.16 564.47 -79.87 485.06 -314.15 405.6 -407.93 350.61 -303.54 322.43 -51.57 294.26 219.37 294.25 383.14 320.58 376.11 346.86 214.81 397.12 -15.5 462.68 -230.82 514.26 -340.42 558.14 -319.82 570.99 -184.08 533.33 17.27 436.29 223.08 275.39 404.35 81.83 520.64 -122.8 571.85 -285.39 567.18 -352.96 525.48 -301.33 472.6 -131.97 403.6 91.05 349.69 298.01 320.72 398.14 291.69 337.07 290.34 131.37 318.51 -138.02 346.68 -348.44 403.03 -402.36 485.18 -288.02 567.27 -56.86 672.41 194.09 790.22 373.6 891.92 432.85 980.01 364.65 1028.09 213.05 1020.28 20.01 944.44 -144.05 800.08 -242.16 631.19 -269.78 463.23 -222.56 356.81 -126.45 365.54 7.41 500.4 146.71 736.37 271.44 987.33 394.26 1164.66 491 1182.56 561.61 1029.66 627.94 764.42 674.37 512.45 702.54Q512.45 702.54 512.45 702.54" opacity="0.19"></path><path d="M478.45 411.38C375.19 437.2 434.4 436.89 618.95 412.88 859.12 389.8 1054.3 346.49 1140.22 291.45 1099.48 249.9 949.49 216.16 746.08 209.44 533.52 245.29 369.2 331.48 276.07 473.28 254.9 647.17 295.45 839.99 369.77 1011.09 472.24 1112.68 567.99 1119.02 641.72 1014.42 709.82 831.44 749.29 613.74 762.73 436 771.49 371.37 761.61 446.07 735.79 643.87 709.97 891.6 669.44 1087.97 611.98 1165.58 549.85 1106.5 463.41 934.45 350.56 713.5 232.09 501.58 93.82 359.76 -48.43 310.75 -162.54 353.96 -240.16 463.18 -252.84 599.04 -193.55 745.87 -59.84 861.97 125.83 934.37 302.35 972.11 429.19 967.91 451 935.94 346.16 883.26 136.28 822.96 -113.84 767.67 -308.35 708.08 -372.8 662.8 -269.54 636.98 -41.42 611.15 212.25 606 390.3 616.91 433.79 623.5 336.71 636.84 150.56 644.77 -66.05 632.01 -231.49 593.7 -303.51 516.18 -275.35 404 -159.11 250.85 4.54 70.17 192.47 -99.53 360.19 -239.37 488.04 -309.49 580.93 -287.38 630.35 -168.74 649.87 24.23 646.23 226.25 634.45 383.63 628.07 432.78 616.75 345.25 621.43 143.68 647.25 -104.03 673.07 -301.87 718.8 -371.38 778.82 -296.83 833.9 -109.14 892.64 123.25 941.03 325.17 966.25 448.72 959.35 465.54 906.25 390.85 818.2 246.64 687.55 84.43 533.46 -55.62 403.64 -163.58 318.01 -212.7 316.73 -208.77 415.64 -162.26 604.24 -85.99 839.78 0.3 1044.86 100.07 1156.64 190.36 1123.11 262.13 955.02 334.83 706.58 385.56 478.45 411.38Q478.45 411.38 478.45 411.38" opacity="0.22"></path><path d="M444.38 112.84C343.76 136.31 377.48 143.56 522.98 138.73 734.34 137.92 934.99 133.34 1066.69 135.13 1104.44 154.35 1039.34 196.01 900.25 270.76 715.03 373.67 530.54 511.77 378.8 675.61 267.23 834.55 210.45 976.53 198.6 1068.95 224.87 1087.26 271.11 1021.36 319.75 875.48 378.7 690.5 423.58 502.95 447.6 369.79 471.89 339.95 473.26 425.72 449.79 609.88 426.31 835.53 379.11 1024.59 310.55 1122.48 242.27 1109.61 154.69 991.9 55.07 810.29 -34.25 605.3 -119.13 429.65 -181.58 314.63 -205.91 269.94 -182.83 294.74 -102.03 367.56 18.94 478.33 175.6 593.74 336.38 693.67 451.03 784.47 495.08 844.23 440.13 874.53 291.23 889.83 77.22 884.78 -143.2 867.77 -297.75 845.89 -336.23 821.16 -235.61 797.69 -31.1 774.22 202.47 753.12 386.44 730.73 470.22 703.47 434.82 665.82 305.85 609.85 118.61 538.87 -63.55 440.45 -195.53 313.48 -261.26 177.37 -245.61 28.27 -165.84 -113.26 -36.1 -216.84 112.71 -269.48 255.5 -249.23 393.86 -158.64 504.22 -4.05 585.42 183.73 651.21 348.14 695.8 452.49 727.29 456.29 753.44 349.35 776.31 155.53 799.79 -70.11 823.26 -254.27 846.22 -335.28 864.33 -296.39 877.12 -154.17 875.24 46.73 850.13 248.92 809.62 411.99 737.92 498.95 635.75 505.08 529.13 437.1 414 322.95 315.01 194.77 265.99 61.7 278.14 -42.7 368.29 -109.43 524.7 -148 727.91 -151.01 932.36 -129.55 1078.56 -90.66 1127.35 -43.39 1052.67 1.68 877.79 50.78 648.98 89.36 444.45 112.83Q444.38 112.84 444.38 112.84" opacity="0.07"></path><path d="M411.14 0.59C313.99 21.71 325.25 44.12 432.58 70.42 608.12 100.58 797.14 141.73 952.05 199.54 1048.54 268.72 1063.26 361.13 1004.13 477.11 884.84 599.81 733.53 734.63 578.94 866.07 429.01 969.3 308.97 1035.52 223.75 1044.98 165.98 993.54 137.41 880.16 127.43 719.67 132.83 551.78 142.06 403.03 146.05 313.59 153.49 313.49 148.52 406.29 127.39 575.77 106.27 779.04 70 957.42 22.72 1068.41 -21.11 1094.05 -68.77 1029.22 -110.78 896.95 -137.4 722.52 -143.62 545.3 -118.41 395.95 -65.75 286.69 23.96 232.26 146.19 227.14 273.1 265.95 399.35 331.42 496.65 405.78 533.78 491.96 500.12 566.7 388.14 622.75 217.75 675.12 16.71 706.63 -166.97 718.41 -282.46 727.66 -298 721.23 -200.85 700.11 -19.28 678.99 191.88 644.17 373.59 595.09 485.51 543.47 503.46 473.55 435.38 384.58 298.67 291.92 135.63 182.39 -15.55 63.65 -138.96 -43.27 -206.23 -139.07 -216.37 -205.59 -176.63 -228.17 -97.65 -198.81 1.12 -111.56 117.9 15.78 230.23 174.04 327.8 333 423.52 449.8 499.64 502.63 555.77 468.87 609.53 349.76 646.85 167.12 667.97 -36.13 689.09 -205.64 693.02 -294.2 679.11 -285.98 662.81 -188.41 625.13 -27.65 566.02 155.73 505.06 331.7 427.51 464.05 343.3 537.49 277.07 550.04 228.42 508.87 216.37 433.33 254.2 329.57 346.52 225.08 491.92 134.94 665.11 51.52 847.1 -6.1 999.29 -38.66 1082.85 -59.87 1076.93 -62.59 973.15 -52.91 799.6 -39.37 592.71 -20.53 411.14 0.59Q411.14 0.59 411.14 0.59" opacity="0.91"></path><path d="M376.37 147.84C285.19 166.62 279.07 199.63 352.04 246.67 488.71 295.34 652.52 360.52 808.13 441.86 936.72 524.99 1010.73 621.96 1025.46 726.39 985.77 820.96 901.27 907.89 791.06 973.28 661.22 1004.61 534.17 995.58 421.81 938.57 317.6 842.98 235.68 710.91 174.85 560.16 124.29 423.47 88.38 317.57 61.98 268.36 38.97 292.27 19.22 388.11 0.45 541.97 -18.32 722.62 -35.24 887.31 -47.65 1004.33 -56.66 1059.31 -54.91 1041.53 -36.9 961.54 -8.61 833.23 42.38 681.78 117.65 531.81 201.07 393.4 301.16 286.82 406.39 216.91 491.99 180.57 554.22 176.12 574.37 193.24 540.08 230.66 449.23 273.96 306.88 313.59 137.5 358.62 -36.98 391.77 -180.9 408.95 -261.11 426.5 -258.8 426.73 -167.62 407.95 -9.21 389.17 177.76 352.27 350.71 299.32 479.65 246.72 540.28 179.41 530 101.83 454.42 29.67 336.75 -44.54 203.89 -110.91 67.02 -156.97 -44.47 -179.48 -119.66 -167.75 -162.54 -122.45 -166.53 -38.14 -140.69 80.71 -90.56 211.13 -26.58 345.74 39.96 460.29 114.39 526.51 180.94 533.61 233.8 471.38 287.63 347.12 325.21 178.62 343.99 -2.02 362.78 -155.88 361.87 -247.92 343.47 -264.58 326.02 -208.13 293.64 -91.54 251.74 58.91 217.74 223.42 184.68 372.32 163.48 487.47 166.56 564.03 197.49 595.33 264.97 588.61 364.76 547.83 498.52 487.85 654.93 422.22 807.35 346.73 941.87 280.69 1031.23 230.1 1055.3 181.31 1005.38 150.28 883.72 137.03 718.04 125.4 534.86 129.06 376.44 147.83Q376.37 147.84 376.37 147.84" opacity="0.27"></path><path d="M342.44 458.67C240.11 491.53 384.54 586.05 645.36 719.6 892.88 833.71 987.03 934.44 931.16 953.08 767.43 867.97 575.96 664.47 424.48 409.89 279.44 252.31 190.53 275.78 157.67 507.96 124.81 819.28 151.11 1008.84 239.2 993.98 333.73 805.54 473.92 547.21 594.58 331.99 607.38 180.47 478.38 121.13 206.77 111.12 -78.13 133.79 -235.88 143.3 -133.55 110.44 166.46 77.58 459.43 5.45 580.54 -74.16 497.82 -121.09 293.55 -113.03 97.49 -4.59 -43.94 362.01 93.79 -205.29 93.88 -28.69 131.6 249.96 234.83 488.32 434.07 616.49 673.2 640.93 912.33 591.49 1019.14 534.32 922.11 457.71 642.46 425.81 342.44 458.67Q342.44 458.67 342.44 458.67" opacity="0.59"></path><path d="M308.38 731.36C204.05 759.52 285.01 814.24 479.74 871.14 715.48 903.34 879.82 892.21 937.63 804.36 908.94 664.66 816.28 467.74 715.66 281.3 598.58 200.36 515.76 263.51 487.59 473.88 459.43 743.29 488.58 937.06 556.85 987.72 608.66 900.87 657.36 720.23 649.13 526.08 554.41 335.56 360.19 200.69 103.8 120.82 -111.56 63.56 -203.94 29.09 -99.61 0.92 152.33 -27.24 420.46 -46.43 585.48 -37.99 608.96 -6.93 509.28 83.97 364.16 237.57 195.2 394.8 76.36 545.56 21 611.78 -13.49 540.5 -8.7 335.36 19.45 65.97 47.61 -144.44 96.48 -196.22 179.78 -94.65 283.94 112.41 446.73 339.22 652.61 515.84 834.66 640.62 964.24 695.71 961.44 712.33 817.1 704.24 560.4 703.18 308.45 731.35Q308.38 731.36 308.38 731.36" opacity="0.35"></path><path d="M274.38 789.03C173.76 812.5 202.65 821.47 326.39 804.94 511.34 773.55 683.13 695.44 799.29 568.7 872.59 435.22 885.06 290.23 862.49 184.34 820.71 168.19 778.59 255.73 755.12 439.88 731.65 665.53 729.05 848.41 730.15 940.14 712.04 939.42 662.94 852.89 558.88 726.19 411.95 570.84 215.27 431.56 13.11 329.91 -127.82 234.23 -166.23 174 -65.61 150.53 138.89 127.05 369.5 142.57 547.82 197.57 645.19 258.54 648.22 361.19 590.85 485.77 485.72 581.7 384.06 643.34 316.54 626.87 249.86 517.97 226.01 325.61 249.48 99.97 272.93 -84.22 341.49 -162.28 448.84 -128.95 557.02 -5.86 695.33 164.02 831.23 328.27 919.38 485.78 941.27 600.52 861.13 672.59 700.05 729.8 478.97 765.55 274.45 789.02Q274.38 789.03 274.38 789.03" opacity="0.57"></path><path d="M240.73 594.1C149.33 612.88 140.14 597.51 199.04 550.34 313.91 500.43 444.36 418.26 557.74 316.83 665.04 231.43 734.59 157.94 766.73 125.79 789.13 155.73 787.99 252 769.22 405.83 750.44 586.5 715.8 745.65 660.86 852.92 596.17 909.25 497.32 904.31 365.4 857.41 227.41 778.22 77.05 689.8 -51.58 614.7 -124.24 535.05 -122.66 480.81 -31.26 462.03 127.26 443.25 311.64 461.71 475.86 508.83 605.58 551.39 679 610.49 702.99 665.08 687.57 687.37 652.69 672.39 622.28 602.29 583.32 481.26 567.61 314.5 586.39 133.83 605.17 -19.99 656.65 -108.65 728.15 -124.82 791.11 -78.91 855.29 14.49 895.33 124.5 895.95 250.53 842.44 362.01 726.49 444.47 576.03 524.18 399.26 575.32 240.73 594.1Q240.73 594.1 240.73 594.1" opacity="0.82"></path><path d="M206.38 273.23C102.05 301.4 168.99 227.49 294.31 124.92 458.73 91.54 548.44 161.51 520.27 371.88 492.1 641.31 351.39 822.26 150.06 868.04 -12.17 834.92 -101.94 761.49 2.38 733.33 254.35 705.16 516.61 727.59 668.25 723.79 745.05 641.1 762.79 437.31 790.96 167.88 819.12 -42.48 852.39 -89.62 812.5 -19.32 697.78 120.16 458.35 245.06 206.38 273.23Q206.38 273.23 206.38 273.23" opacity="0.14"></path><path d="M172.45 34.6C77.96 72.16 222.83 88.75 185.28 337.87 147.72 688.79 -58.03 825.74 36.45 788.18 384.42 750.63 678.78 552.79 716.34 201.87 753.89 -47.24 520.42 -2.94 172.45 34.6Q172.45 34.6 172.45 34.6" opacity="0.43"></path></g></svg>